<?xml version="1.0" encoding="UTF-8" standalone="no"?>
<!-- Created with Inkscape (http://www.inkscape.org/) -->

<svg
   width="1200"
   height="630"
   viewBox="0 0 317.49999 166.6875"
   version="1.1"
   id="svg1"
   xml:space="preserve"
   inkscape:version="1.4.3 (0d15f75042, 2025-12-25)"
   sodipodi:docname="discord-age-verification.svg"
   xmlns:inkscape="http://www.inkscape.org/namespaces/inkscape"
   xmlns:sodipodi="http://sodipodi.sourceforge.net/DTD/sodipodi-0.dtd"
   xmlns="http://www.w3.org/2000/svg"
   xmlns:svg="http://www.w3.org/2000/svg"><sodipodi:namedview
     id="namedview1"
     pagecolor="#737373"
     bordercolor="#000000"
     borderopacity="0.25"
     inkscape:showpageshadow="2"
     inkscape:pageopacity="0.0"
     inkscape:pagecheckerboard="0"
     inkscape:deskcolor="#d1d1d1"
     inkscape:document-units="mm"
     showgrid="true"
     inkscape:zoom="0.72070006"
     inkscape:cx="501.59563"
     inkscape:cy="219.92506"
     inkscape:window-width="1920"
     inkscape:window-height="1012"
     inkscape:window-x="0"
     inkscape:window-y="0"
     inkscape:window-maximized="1"
     inkscape:current-layer="svg1"><inkscape:grid
       id="grid1"
       units="mm"
       originx="0"
       originy="0"
       spacingx="0.99999998"
       spacingy="1"
       empcolor="#0099e5"
       empopacity="0.30196078"
       color="#0099e5"
       opacity="0.14901961"
       empspacing="5"
       enabled="true"
       visible="true" /></sodipodi:namedview><defs
     id="defs1"><marker
       style="overflow:visible"
       id="marker8"
       refX="0"
       refY="0"
       orient="auto"
       inkscape:stockid="Dot"
       markerWidth="1"
       markerHeight="1"
       viewBox="0 0 1 1"
       inkscape:isstock="true"
       inkscape:collect="always"
       preserveAspectRatio="xMidYMid"><path
         transform="scale(0.5)"
         style="fill:context-stroke;fill-rule:evenodd;stroke:none"
         d="M 5,0 C 5,2.76 2.76,5 0,5 -2.76,5 -5,2.76 -5,0 c 0,-2.76 2.3,-5 5,-5 2.76,0 5,2.24 5,5 z"
         sodipodi:nodetypes="sssss"
         id="path8" /></marker><marker
       style="overflow:visible"
       id="Dot"
       refX="0"
       refY="0"
       orient="auto"
       inkscape:stockid="Dot"
       markerWidth="1"
       markerHeight="1"
       viewBox="0 0 1 1"
       inkscape:isstock="true"
       inkscape:collect="always"
       preserveAspectRatio="xMidYMid"><path
         transform="scale(0.5)"
         style="fill:context-stroke;fill-rule:evenodd;stroke:none"
         d="M 5,0 C 5,2.76 2.76,5 0,5 -2.76,5 -5,2.76 -5,0 c 0,-2.76 2.3,-5 5,-5 2.76,0 5,2.24 5,5 z"
         sodipodi:nodetypes="sssss"
         id="path17" /></marker></defs><g
     inkscape:label="Layer 1"
     inkscape:groupmode="layer"
     id="layer1" /><g
     id="g8"
     transform="translate(-1.25,-1.65625)"
     inkscape:export-filename="g8.png"
     inkscape:export-xdpi="96"
     inkscape:export-ydpi="96"><rect
       style="fill:#212121;fill-opacity:1;stroke:#d9d9d9;stroke-width:4.265;stroke-linecap:round;stroke-linejoin:round;stroke-dasharray:none;stroke-opacity:1"
       id="rect8"
       width="160"
       height="160"
       x="80"
       y="5" /><path
       d="m 206.76129,40.090186 c -8.72079,-4.08024 -18.04546,-7.04559 -27.79416,-8.734086 -1.19725,2.164591 -2.59599,5.076016 -3.56037,7.392036 -10.36311,-1.55848 -20.63092,-1.55848 -30.80345,0 -0.96419,-2.31602 -2.39469,-5.227445 -3.60266,-7.392036 -9.75922,1.688496 -19.09461,4.664736 -27.81539,8.755686 -17.589904,26.58065 -22.358237,52.50108 -19.974066,78.053444 11.666546,8.71229 22.972836,14.00475 34.088316,17.46799 2.74448,-3.77719 5.19218,-7.79243 7.30081,-12.0241 -4.01597,-1.52598 -7.86241,-3.40912 -11.49684,-5.59532 0.9642,-0.71433 1.90734,-1.46116 2.81853,-2.2296 22.16744,10.36829 46.25292,10.36829 68.15552,0 0.92191,0.76844 1.86486,1.51527 2.81854,2.2296 -3.64514,2.19691 -7.50211,4.08006 -11.51808,5.60622 2.10863,4.22077 4.54581,8.2469 7.3008,12.0239 11.1262,-3.46323 22.44297,-8.7555 34.10953,-17.47869 2.79748,-29.621704 -4.77886,-55.304094 -20.02703,-78.075044 z m -69.14096,62.360574 c -6.65444,0 -12.11162,-6.212324 -12.11162,-13.777404 0,-7.56508 5.34065,-13.78812 12.11162,-13.78812 6.77116,0 12.22816,6.21214 12.11163,13.78812 0.0105,7.56508 -5.34047,13.777404 -12.11163,13.777404 z m 44.75889,0 c -6.65445,0 -12.11163,-6.212324 -12.11163,-13.777404 0,-7.56508 5.34047,-13.78812 12.11163,-13.78812 6.77097,0 12.22815,6.21214 12.11162,13.78812 0,7.56508 -5.34065,13.777404 -12.11162,13.777404 z"
       fill="#5865f2"
       fill-rule="nonzero"
       id="path1"
       style="stroke-width:0.526257" /><path
       style="fill:none;stroke:#ffffff;stroke-width:4.265;stroke-linecap:round;stroke-linejoin:round;stroke-opacity:1"
       d="M 90.000003,35.000003 V 15.000004 h 20.000007"
       id="path2"
       sodipodi:nodetypes="ccc" /><path
       style="fill:none;stroke:#ffffff;stroke-width:4.265;stroke-linecap:round;stroke-linejoin:round;stroke-opacity:1"
       d="m 210.00001,15.000004 h 20 v 19.999999"
       id="path3" /><path
       style="fill:none;stroke:#ffffff;stroke-width:4.265;stroke-linecap:round;stroke-linejoin:round;stroke-opacity:1"
       d="m 230.00001,135 v 20 h -20"
       id="path4" /><path
       style="fill:none;stroke:#ffffff;stroke-width:4.265;stroke-linecap:round;stroke-linejoin:round;stroke-opacity:1"
       d="M 110.00001,155 H 90.000003 v -20"
       id="path5" /><path
       style="fill:none;stroke:#ffffff;stroke-width:4.265;stroke-linecap:round;stroke-linejoin:round;stroke-opacity:1"
       d="M 90.000003,107.13251 H 230.00001"
       id="path6" /><path
       style="fill:none;stroke:#ffffff;stroke-width:2.865;stroke-linecap:round;stroke-linejoin:round;stroke-dasharray:none;stroke-opacity:1;marker-start:url(#Dot);marker-mid:url(#marker8)"
       d="m 135.00001,89.999996 -20,-39.99999 h 90 l -20,39.99999 -25,-30 z"
       id="path7"
       sodipodi:nodetypes="cccccc" /></g></svg>
